# xmcd
#
# Track frame offsets:
#	150
#	69833
#	173429
#	180929
#	194470
#	203782
#
# Disc length: 2741 seconds
#
# Revision: 1
# Processed by: cddbd v1.5.2PL0 Copyright (c) Steve Scherf et al.
# Submitted via: audiograbber 1.83.01
#
DISCID=430ab306
DTITLE=dff - dfdf
DYEAR=4566
DGENRE=fghfg
TTITLE0=Data Track
TTITLE1=Data Track
TTITLE2=Data Track
TTITLE3=Data Track
TTITLE4=Data Track
TTITLE5=Data Track
EXTD=
EXTT0=
EXTT1=
EXTT2=
EXTT3=
EXTT4=
EXTT5=
PLAYORDER=
